#!OML:ASF H:\ManfredETheater\Project 1\Capture day 1\Session 1\subject.ASF
:FULLY-SPECIFIED
:DEGREES
46
root 0.631763 17.1611 32.7253 -175.326 -6.37936 178.01
lowerback 4.92264 -0.78394 -3.79182
upperback -3.18029 -1.2836 1.88743
thorax -5.95838 -0.45756 4.23562
lowerneck -19.3539 -0.120319 -1.90575
upperneck 26.6131 -0.142417 -1.12517
head 11.9613 -0.771006 -0.197256
rclavicle -5.6312e-015 3.02153e-014
rhumerus -35.3606 -11.0507 -76.7269
rradius 30.7231
rwrist 1.78711
rhand -20.0985 -12.3977
rfingers 7.12502
rthumb 6.24473 -42.2857
lclavicle -5.6312e-015 3.02153e-014
lhumerus -36.0578 5.60847 83.9733
lradius 32.4259
lwrist -14.6147
lhand -8.94451 9.20677
lfingers 7.12502
lthumb 16.9998 38.4829
rfemur -30.6984 -3.03995 15.0865
rtibia 35.57
rfoot -5.72378 -5.96929
rtoes 11.899
lfemur -10.5964 -4.93266 -25.6784
ltibia 31.9621
lfoot -22.4483 -1.08609
ltoes 9.3452
47
root 0.629794 17.161 32.7243 -175.319 -6.34283 178.017
lowerback 4.93562 -0.778737 -3.80344
upperback -3.19004 -1.27836 1.88576
thorax -5.97656 -0.453948 4.24052
lowerneck -19.3683 -0.117182 -1.90325
upperneck 26.624 -0.1365 -1.13296
head 11.9684 -0.769559 -0.199874
rclavicle 1.74868e-014 1.59028e-015
rhumerus -35.355 -11.04 -76.7249
rradius 30.7253
rwrist 1.78962
rhand -20.1007 -12.3843
rfingers 7.12502
rthumb 6.24262 -42.2723
lclavicle 1.74868e-014 1.59028e-015
lhumerus -36.0569 5.57269 83.9945
lradius 32.4556
lwrist -14.5873
lhand -8.92109 9.23992
lfingers 7.12502
lthumb 17.0224 38.5141
rfemur -30.7102 -3.0198 15.0909
rtibia 35.567
rfoot -5.71632 -5.95761
rtoes 11.8866
lfemur -10.6021 -4.91278 -25.679
ltibia 31.9662
lfoot -22.4511 -1.07544
ltoes 9.34136
48
root 0.627885 17.161 32.7232 -175.312 -6.30955 178.025
lowerback 4.94062 -0.775297 -3.8138
upperback -3.1956 -1.27501 1.88328
thorax -5.98556 -0.451621 4.24372
lowerneck -19.3772 -0.113678 -1.90011
upperneck 26.6289 -0.130354 -1.13995
head 11.9721 -0.767615 -0.202164
rclavicle 1.19333e-014 7.95139e-016
rhumerus -35.3458 -11.0355 -76.7254
rradius 30.7273
rwrist 1.79532
rhand -20.1027 -12.3759
rfingers 7.12502
rthumb 6.24068 -42.264
lclavicle 1.19333e-014 7.95139e-016
lhumerus -36.0519 5.54047 84.0127
lradius 32.4815
lwrist -14.5629
lhand -8.89784 9.26744
lfingers 7.12502
lthumb 17.0448 38.5397
rfemur -30.7203 -3.00188 15.0956
rtibia 35.564
rfoot -5.70971 -5.94683
rtoes 11.8753
lfemur -10.6072 -4.89327 -25.679
ltibia 31.9701
lfoot -22.4542 -1.06622
ltoes 9.33095
49
root 0.626038 17.161 32.722 -175.306 -6.28052 178.033
lowerback 4.93903 -0.774092 -3.82205
upperback -3.19683 -1.27412 1.8808
thorax -5.98596 -0.450863 4.24568
lowerneck -19.3832 -0.110161 -1.89712
upperneck 26.6276 -0.123763 -1.14682
head 11.9728 -0.765181 -0.204206
rclavicle -2.10277e-015 -1.35174e-014
rhumerus -35.3335 -11.032 -76.7295
rradius 30.7317
rwrist 1.79933
rhand -20.1067 -12.3723
rfingers 7.12502
rthumb 6.23684 -42.2605
lclavicle -2.10277e-015 -1.35174e-014
lhumerus -36.0423 5.51209 84.029
lradius 32.5037
lwrist -14.5393
lhand -8.87652 9.28875
lfingers 7.12502
lthumb 17.0653 38.5592
rfemur -30.7282 -2.98533 15.1013
rtibia 35.5612
rfoot -5.70476 -5.93861
rtoes 11.8692
lfemur -10.611 -4.87304 -25.6768
ltibia 31.9736
lfoot -22.4578 -1.06323
ltoes 9.32824
50
root 0.624219 17.1611 32.7208 -175.301 -6.25435 178.041
lowerback 4.932 -0.772981 -3.82755
upperback -3.19048 -1.27274 1.8758
thorax -5.97535 -0.450347 4.24305
lowerneck -19.4006 -0.109091 -1.892
upperneck 26.623 -0.119914 -1.15323
head 11.9745 -0.763159 -0.206789
rclavicle -2.13694e-015 1.03368e-014
rhumerus -35.3107 -11.0384 -76.7383
rradius 30.7363
rwrist 1.80256
rhand -20.1104 -12.3741
rfingers 7.12502
rthumb 6.23323 -42.2624
lclavicle -2.13694e-015 1.03368e-014
lhumerus -36.017 5.4826 84.0438
lradius 32.5184
lwrist -14.5192
lhand -8.85277 9.30868
lfingers 7.12502
lthumb 17.0882 38.5772
rfemur -30.7347 -2.96972 15.1061
rtibia 35.5589
rfoot -5.69972 -5.93185
rtoes 11.861
lfemur -10.6132 -4.85371 -25.6748
ltibia 31.9762
lfoot -22.4611 -1.0618
ltoes 9.32282
51
root 0.622432 17.1612 32.7195 -175.297 -6.23284 178.049
lowerback 4.91977 -0.772512 -3.82934
upperback -3.17713 -1.27154 1.86889
thorax -5.9544 -0.450419 4.23603
lowerneck -19.4287 -0.110001 -1.88519
upperneck 26.6154 -0.118269 -1.15864
head 11.9772 -0.761319 -0.209569
rclavicle -2.74913e-014 -2.3059e-014
rhumerus -35.2796 -11.0526 -76.7514
rradius 30.7421
rwrist 1.8042
rhand -20.1137 -12.3768
rfingers 7.12502
rthumb 6.23005 -42.2652
lclavicle -2.74913e-014 -2.3059e-014
lhumerus -35.9782 5.45239 84.0573
lradius 32.5263
lwrist -14.5018
lhand -8.83101 9.32498
lfingers 7.12502
lthumb 17.1091 38.5916
rfemur -30.7391 -2.95621 15.1114
rtibia 35.5572
rfoot -5.69695 -5.92745
rtoes 11.8535
lfemur -10.6133 -4.83637 -25.6716
ltibia 31.9778
lfoot -22.4639 -1.06354
ltoes 9.32213
52
root 0.620676 17.1613 32.7181 -175.295 -6.2173 178.058
lowerback 4.90535 -0.775027 -3.83113
upperback -3.1625 -1.27419 1.86278
thorax -5.93044 -0.45247 4.23013
lowerneck -19.4476 -0.110366 -1.87932
upperneck 26.6012 -0.115701 -1.16421
head 11.9754 -0.759055 -0.211991
rclavicle 4.24902e-015 2.38542e-015
rhumerus -35.2495 -11.0636 -76.7662
rradius 30.7481
rwrist 1.80364
rhand -20.115 -12.3745
rfingers 7.12502
rthumb 6.22881 -42.2629
lclavicle 4.24902e-015 2.38542e-015
lhumerus -35.941 5.42818 84.0687
lradius 32.5311
lwrist -14.4887
lhand -8.81076 9.33788
lfingers 7.12502
lthumb 17.1286 38.6029
rfemur -30.7402 -2.94528 15.1164
rtibia 35.5563
rfoot -5.69556 -5.92525
rtoes 11.845
lfemur -10.6103 -4.82087 -25.6675
ltibia 31.9782
lfoot -22.4662 -1.06926
ltoes 9.32636
53
root 0.618929 17.1614 32.7167 -175.293 -6.20607 178.066
lowerback 4.88826 -0.779408 -3.83154
upperback -3.14592 -1.27906 1.8567
thorax -5.90267 -0.455798 4.22356
lowerneck -19.4615 -0.110637 -1.87257
upperneck 26.5821 -0.112937 -1.17084
head 11.9708 -0.756597 -0.214847
rclavicle 1.82136e-014 -6.36111e-015
rhumerus -35.2191 -11.0724 -76.7842
rradius 30.7548
rwrist 1.80005
rhand -20.1171 -12.3685
rfingers 7.12502
rthumb 6.22673 -42.257
lclavicle 1.82136e-014 -6.36111e-015
lhumerus -35.908 5.39884 84.0815
lradius 32.5403
lwrist -14.4697
lhand -8.7931 9.35311
lfingers 7.12502
lthumb 17.1456 38.6166
rfemur -30.7391 -2.93494 15.1213
rtibia 35.5561
rfoot -5.69584 -5.92615
rtoes 11.8374
lfemur -10.6054 -4.80743 -25.6627
ltibia 31.9779
lfoot -22.4687 -1.07625
ltoes 9.33374
